<svg xmlns="http://www.w3.org/2000/svg" viewBox="0 0 100 100">
  <!-- Background circle -->
  <circle cx="50" cy="50" r="48" fill="#2D5016" stroke="#1a2f0d" stroke-width="2"/>

  <!-- Deer head silhouette -->
  <g fill="#E8DCC8" stroke="#1a2f0d" stroke-width="1.5">
    <!-- Left antler -->
    <path d="M 35 28 Q 30 22 28 18 L 26 20 Q 28 24 33 30 Z"/>
    <path d="M 30 25 Q 26 20 23 16 L 21 18 Q 24 22 28 27 Z"/>
    <path d="M 32 30 Q 29 25 26 22 L 24 24 Q 27 27 30 32 Z"/>

    <!-- Right antler -->
    <path d="M 65 28 Q 70 22 72 18 L 74 20 Q 72 24 67 30 Z"/>
    <path d="M 70 25 Q 74 20 77 16 L 79 18 Q 76 22 72 27 Z"/>
    <path d="M 68 30 Q 71 25 74 22 L 76 24 Q 73 27 70 32 Z"/>

    <!-- Head -->
    <ellipse cx="50" cy="50" rx="16" ry="20"/>

    <!-- Ears -->
    <ellipse cx="38" cy="38" rx="6" ry="10" transform="rotate(-20 38 38)"/>
    <ellipse cx="62" cy="38" rx="6" ry="10" transform="rotate(20 62 38)"/>

    <!-- Snout -->
    <ellipse cx="50" cy="58" rx="8" ry="6"/>

    <!-- Eyes -->
    <circle cx="45" cy="48" r="2.5" fill="#1a2f0d"/>
    <circle cx="55" cy="48" r="2.5" fill="#1a2f0d"/>

    <!-- Nose -->
    <ellipse cx="50" cy="60" rx="3" ry="2" fill="#1a2f0d"/>
  </g>
</svg>
